PathFileType	4	(X/Y/Z)	E:/New_biomech_experiments/Elbow Flexion/Shreyas_25_06_24_elbow_flexion/Session 2024-06-26/Shreyas_ElbFlex_pp_t02_26_06_24.trc	
DataRate	CameraRate	NumFrames	NumMarkers	Units	OrigDataRate	OrigDataStartFrame	OrigNumFrames	
120.00	120.00	18	19	m	120.00	3021	4832	
Frame#	Time	LFHD			LBHD			T10			C7			RBHD			PRSHO			RSHO			STRN			RFHD			CLAV			RWRA			RWRB			ARSHO			MRELB			RFRM			RHAND			RELB			RUPA			MRHAND			
		X1	Y1	Z1	X2	Y2	Z2	X3	Y3	Z3	X4	Y4	Z4	X5	Y5	Z5	X6	Y6	Z6	X7	Y7	Z7	X8	Y8	Z8	X9	Y9	Z9	X10	Y10	Z10	X11	Y11	Z11	X12	Y12	Z12	X13	Y13	Z13	X14	Y14	Z14	X15	Y15	Z15	X16	Y16	Z16	X17	Y17	Z17	X18	Y18	Z18	X19	Y19	Z19	

3021	25.167	0.07375	1.83930	-0.05207	-0.03142	1.73732	-0.06877	-0.08790	1.34181	-0.02257	-0.05745	1.55020	-0.00999	-0.04413	1.75768	0.06759	-0.08968	1.45423	0.11775	0.02878	1.50516	0.20294	0.17387	1.34275	-0.00880	0.05889	1.82456	0.07535	0.13873	1.46815	-0.00207	0.17032	1.35293	0.14587	0.20104	1.34598	0.24231	0.11542	1.45925	0.10959	0.02124	1.14926	0.15790	0.09872	1.27275	0.25416	0.26932	1.44130	0.12929	-0.00490	1.19638	0.27608	0.01349	1.31278	0.24824	0.27741	1.40293	0.24452 
3022	25.175	0.07369	1.83929	-0.05209	-0.03148	1.73731	-0.06877	-0.08762	1.34150	-0.02255	-0.05752	1.55018	-0.00998	-0.04416	1.75770	0.06761	-0.08974	1.45420	0.11777	0.02871	1.50517	0.20296	0.17387	1.34276	-0.00884	0.05886	1.82457	0.07534	0.13867	1.46816	-0.00207	0.16977	1.35329	0.14614	0.20077	1.34651	0.24240	0.11537	1.45928	0.10960	0.02138	1.14929	0.15790	0.09865	1.27297	0.25417	0.26858	1.44204	0.12918	-0.00479	1.19636	0.27613	0.01354	1.31279	0.24826	0.27691	1.40372	0.24441 
3023	25.183	0.07364	1.83928	-0.05211	-0.03155	1.73731	-0.06877	-0.08738	1.34122	-0.02253	-0.05760	1.55016	-0.00997	-0.04419	1.75772	0.06763	-0.08980	1.45417	0.11779	0.02862	1.50519	0.20299	0.17387	1.34278	-0.00889	0.05883	1.82458	0.07534	0.13860	1.46816	-0.00206	0.16933	1.35360	0.14629	0.20054	1.34703	0.24257	0.11531	1.45932	0.10962	0.02153	1.14931	0.15791	0.09859	1.27317	0.25418	0.26788	1.44276	0.12910	-0.00467	1.19634	0.27619	0.01358	1.31281	0.24827	0.27644	1.40446	0.24430 
3024	25.192	0.07359	1.83926	-0.05212	-0.03163	1.73731	-0.06877	-0.08730	1.34109	-0.02251	-0.05768	1.55014	-0.00998	-0.04423	1.75774	0.06765	-0.08987	1.45414	0.11780	0.02853	1.50521	0.20301	0.17386	1.34279	-0.00891	0.05880	1.82458	0.07533	0.13853	1.46817	-0.00206	0.16899	1.35388	0.14631	0.20036	1.34753	0.24277	0.11525	1.45936	0.10964	0.02167	1.14934	0.15792	0.09854	1.27336	0.25419	0.26724	1.44343	0.12902	-0.00454	1.19633	0.27626	0.01362	1.31282	0.24828	0.27602	1.40515	0.24420 
3025	25.200	0.07354	1.83925	-0.05212	-0.03171	1.73731	-0.06877	-0.08723	1.34096	-0.02250	-0.05776	1.55012	-0.00999	-0.04428	1.75776	0.06766	-0.08995	1.45410	0.11781	0.02844	1.50522	0.20303	0.17383	1.34280	-0.00890	0.05876	1.82459	0.07532	0.13845	1.46818	-0.00205	0.16876	1.35414	0.14617	0.20019	1.34799	0.24294	0.11519	1.45942	0.10967	0.02181	1.14936	0.15793	0.09851	1.27354	0.25419	0.26666	1.44406	0.12895	-0.00441	1.19631	0.27632	0.01366	1.31284	0.24829	0.27564	1.40578	0.24410 
3026	25.208	0.07349	1.83924	-0.05213	-0.03179	1.73731	-0.06878	-0.08700	1.34068	-0.02249	-0.05786	1.55010	-0.01000	-0.04434	1.75779	0.06767	-0.09003	1.45407	0.11782	0.02833	1.50523	0.20305	0.17379	1.34281	-0.00888	0.05871	1.82459	0.07531	0.13836	1.46820	-0.00205	0.16862	1.35436	0.14592	0.20004	1.34839	0.24305	0.11512	1.45949	0.10971	0.02195	1.14937	0.15794	0.09850	1.27370	0.25420	0.26615	1.44462	0.12888	-0.00427	1.19629	0.27636	0.01370	1.31285	0.24830	0.27530	1.40635	0.24403 
3027	25.217	0.07343	1.83924	-0.05215	-0.03187	1.73731	-0.06879	-0.08674	1.34037	-0.02247	-0.05795	1.55008	-0.01001	-0.04440	1.75782	0.06767	-0.09011	1.45403	0.11782	0.02823	1.50525	0.20307	0.17373	1.34282	-0.00886	0.05865	1.82460	0.07530	0.13827	1.46821	-0.00204	0.16853	1.35457	0.14562	0.19991	1.34875	0.24312	0.11506	1.45956	0.10976	0.02209	1.14939	0.15795	0.09849	1.27384	0.25420	0.26570	1.44512	0.12883	-0.00413	1.19627	0.27639	0.01374	1.31286	0.24831	0.27501	1.40687	0.24397 
3028	25.225	0.07338	1.83924	-0.05216	-0.03196	1.73731	-0.06880	-0.08656	1.34013	-0.02246	-0.05805	1.55005	-0.01001	-0.04447	1.75784	0.06767	-0.09020	1.45399	0.11782	0.02812	1.50527	0.20309	0.17368	1.34284	-0.00882	0.05858	1.82461	0.07529	0.13819	1.46822	-0.00204	0.16841	1.35472	0.14535	0.19978	1.34905	0.24316	0.11499	1.45963	0.10980	0.02223	1.14940	0.15797	0.09850	1.27397	0.25421	0.26532	1.44556	0.12878	-0.00400	1.19625	0.27641	0.01378	1.31287	0.24831	0.27475	1.40734	0.24392 
3029	25.233	0.07332	1.83924	-0.05216	-0.03205	1.73731	-0.06882	-0.08645	1.33995	-0.02246	-0.05814	1.55000	-0.01000	-0.04455	1.75786	0.06766	-0.09029	1.45395	0.11783	0.02802	1.50528	0.20311	0.17362	1.34285	-0.00879	0.05850	1.82461	0.07528	0.13810	1.46823	-0.00202	0.16819	1.35480	0.14518	0.19968	1.34933	0.24318	0.11492	1.45968	0.10983	0.02237	1.14941	0.15799	0.09852	1.27408	0.25421	0.26499	1.44594	0.12874	-0.00388	1.19623	0.27641	0.01383	1.31287	0.24832	0.27452	1.40777	0.24390 
3030	25.242	0.07326	1.83924	-0.05216	-0.03215	1.73731	-0.06884	-0.08637	1.33980	-0.02245	-0.05823	1.54996	-0.00999	-0.04464	1.75788	0.06765	-0.09038	1.45391	0.11783	0.02792	1.50527	0.20312	0.17356	1.34287	-0.00875	0.05842	1.82461	0.07527	0.13802	1.46824	-0.00201	0.16798	1.35489	0.14511	0.19958	1.34957	0.24320	0.11484	1.45971	0.10985	0.02251	1.14941	0.15800	0.09854	1.27417	0.25421	0.26471	1.44627	0.12871	-0.00376	1.19620	0.27641	0.01387	1.31286	0.24833	0.27432	1.40815	0.24388 
3031	25.250	0.07320	1.83923	-0.05216	-0.03226	1.73729	-0.06888	-0.08633	1.33969	-0.02244	-0.05833	1.54992	-0.00998	-0.04474	1.75789	0.06764	-0.09046	1.45387	0.11784	0.02783	1.50526	0.20315	0.17350	1.34288	-0.00872	0.05832	1.82462	0.07526	0.13794	1.46825	-0.00200	0.16782	1.35502	0.14509	0.19949	1.34979	0.24320	0.11476	1.45974	0.10986	0.02266	1.14941	0.15801	0.09856	1.27426	0.25421	0.26447	1.44655	0.12868	-0.00365	1.19617	0.27638	0.01392	1.31285	0.24834	0.27414	1.40850	0.24387 
3032	25.258	0.07312	1.83923	-0.05216	-0.03238	1.73727	-0.06891	-0.08632	1.33959	-0.02243	-0.05842	1.54988	-0.00997	-0.04485	1.75790	0.06763	-0.09054	1.45383	0.11784	0.02775	1.50525	0.20316	0.17344	1.34289	-0.00869	0.05821	1.82462	0.07524	0.13785	1.46825	-0.00200	0.16767	1.35514	0.14509	0.19940	1.34999	0.24321	0.11469	1.45975	0.10987	0.02280	1.14941	0.15801	0.09858	1.27433	0.25422	0.26424	1.44682	0.12866	-0.00355	1.19614	0.27635	0.01397	1.31285	0.24835	0.27398	1.40882	0.24387 
3033	25.267	0.07303	1.83922	-0.05217	-0.03249	1.73726	-0.06893	-0.08632	1.33952	-0.02242	-0.05851	1.54983	-0.00994	-0.04496	1.75791	0.06761	-0.09062	1.45378	0.11785	0.02767	1.50521	0.20315	0.17338	1.34291	-0.00866	0.05810	1.82462	0.07523	0.13778	1.46826	-0.00199	0.16754	1.35525	0.14506	0.19931	1.35017	0.24321	0.11461	1.45975	0.10987	0.02294	1.14941	0.15800	0.09860	1.27440	0.25423	0.26404	1.44708	0.12865	-0.00345	1.19611	0.27633	0.01402	1.31283	0.24837	0.27382	1.40912	0.24387 
3034	25.275	0.07293	1.83921	-0.05218	-0.03260	1.73724	-0.06895	-0.08633	1.33945	-0.02241	-0.05860	1.54977	-0.00991	-0.04508	1.75791	0.06760	-0.09069	1.45375	0.11786	0.02760	1.50515	0.20313	0.17332	1.34292	-0.00864	0.05797	1.82462	0.07522	0.13771	1.46826	-0.00198	0.16741	1.35536	0.14500	0.19923	1.35034	0.24322	0.11454	1.45974	0.10986	0.02308	1.14941	0.15798	0.09862	1.27446	0.25424	0.26385	1.44731	0.12865	-0.00336	1.19608	0.27632	0.01406	1.31282	0.24839	0.27366	1.40941	0.24388 
3035	25.283	0.07282	1.83920	-0.05218	-0.03272	1.73723	-0.06896	-0.08635	1.33939	-0.02239	-0.05868	1.54971	-0.00987	-0.04520	1.75790	0.06758	-0.09076	1.45371	0.11788	0.02753	1.50510	0.20311	0.17326	1.34294	-0.00862	0.05784	1.82463	0.07520	0.13764	1.46827	-0.00198	0.16728	1.35549	0.14491	0.19913	1.35051	0.24322	0.11446	1.45972	0.10984	0.02323	1.14943	0.15793	0.09864	1.27452	0.25426	0.26366	1.44753	0.12865	-0.00327	1.19606	0.27632	0.01411	1.31281	0.24841	0.27350	1.40969	0.24389 
3036	25.292	0.07269	1.83920	-0.05219	-0.03284	1.73720	-0.06897	-0.08638	1.33934	-0.02237	-0.05875	1.54965	-0.00983	-0.04533	1.75789	0.06757	-0.09081	1.45367	0.11790	0.02747	1.50505	0.20310	0.17320	1.34296	-0.00860	0.05770	1.82463	0.07519	0.13757	1.46827	-0.00198	0.16715	1.35564	0.14479	0.19903	1.35067	0.24322	0.11439	1.45969	0.10982	0.02345	1.14941	0.15788	0.09864	1.27459	0.25428	0.26346	1.44775	0.12865	-0.00319	1.19603	0.27633	0.01415	1.31279	0.24843	0.27332	1.40996	0.24390 
3037	25.300	0.07256	1.83919	-0.05220	-0.03296	1.73718	-0.06897	-0.08640	1.33930	-0.02235	-0.05883	1.54959	-0.00978	-0.04546	1.75787	0.06756	-0.09087	1.45364	0.11792	0.02743	1.50502	0.20310	0.17315	1.34298	-0.00858	0.05756	1.82463	0.07518	0.13750	1.46827	-0.00197	0.16701	1.35580	0.14469	0.19891	1.35084	0.24322	0.11432	1.45966	0.10979	0.02379	1.14931	0.15785	0.09864	1.27465	0.25431	0.26324	1.44799	0.12866	-0.00311	1.19601	0.27634	0.01419	1.31278	0.24845	0.27312	1.41023	0.24392 
3038	25.308	0.07241	1.83918	-0.05221	-0.03309	1.73715	-0.06895	-0.08643	1.33926	-0.02233	-0.05890	1.54955	-0.00974	-0.04557	1.75785	0.06758	-0.09092	1.45361	0.11794	0.02739	1.50499	0.20310	0.17309	1.34300	-0.00855	0.05742	1.82464	0.07518	0.13744	1.46827	-0.00197	0.16686	1.35597	0.14465	0.19878	1.35101	0.24322	0.11426	1.45962	0.10977	0.02414	1.14920	0.15784	0.09863	1.27472	0.25434	0.26300	1.44825	0.12867	-0.00304	1.19599	0.27635	0.01423	1.31278	0.24847	0.27290	1.41050	0.24394 
